<svg xmlns="http://www.w3.org/2000/svg" width="700.423" height="199" viewBox="0 0 700.423 199">
  <g id="Type" transform="translate(-126.577 -209)">
    <g id="Top_Grid" data-name="Top Grid" transform="translate(26.274 -66.371)" opacity="0.34">
      <line id="Line_3" data-name="Line 3" x2="15" transform="translate(721.365 349.871)" fill="none" stroke="#707070" stroke-width="6" opacity="0.44"/>
      <g id="Rectangle_2" data-name="Rectangle 2" transform="translate(509.726 320.371)" fill="#fff" stroke="rgba(112,112,112,0.36)" stroke-width="6">
        <rect width="57" height="58" stroke="none"/>
        <rect x="3" y="3" width="51" height="52" fill="none"/>
      </g>
      <g id="Rectangle_2-2" data-name="Rectangle 2" transform="translate(561.727 320.371)" fill="#fff" stroke="rgba(112,112,112,0.36)" stroke-width="6">
        <rect width="57" height="58" stroke="none"/>
        <rect x="3" y="3" width="51" height="52" fill="none"/>
      </g>
      <g id="Rectangle_2-3" data-name="Rectangle 2" transform="translate(613.727 320.371)" fill="#fff" stroke="rgba(112,112,112,0.36)" stroke-width="6">
        <rect width="57" height="58" stroke="none"/>
        <rect x="3" y="3" width="51" height="52" fill="none"/>
      </g>
      <g id="Rectangle_2-4" data-name="Rectangle 2" transform="translate(664.727 320.371)" fill="#fff" stroke="rgba(112,112,112,0.36)" stroke-width="6">
        <rect width="57" height="58" stroke="none"/>
        <rect x="3" y="3" width="51" height="52" fill="none"/>
      </g>
      <circle id="Ellipse_1" data-name="Ellipse 1" cx="8" cy="8" r="8" transform="translate(530.726 341.371)" fill="#dcdcdc"/>
    </g>
    <g id="Bottom_Grid" data-name="Bottom Grid" transform="translate(-368.726 29.629)" opacity="0.34">
      <line id="Line_4" data-name="Line 4" x2="15" transform="translate(495.304 349.371)" fill="none" stroke="#707070" stroke-width="6" opacity="0.44"/>
      <g id="Rectangle_2-5" data-name="Rectangle 2" transform="translate(509.726 320.371)" fill="#fff" stroke="rgba(112,112,112,0.36)" stroke-width="6">
        <rect width="57" height="58" stroke="none"/>
        <rect x="3" y="3" width="51" height="52" fill="none"/>
      </g>
      <g id="Rectangle_2-6" data-name="Rectangle 2" transform="translate(561.727 320.371)" fill="#fff" stroke="rgba(112,112,112,0.36)" stroke-width="6">
        <rect width="57" height="58" stroke="none"/>
        <rect x="3" y="3" width="51" height="52" fill="none"/>
      </g>
      <g id="Rectangle_2-7" data-name="Rectangle 2" transform="translate(613.727 320.371)" fill="#fff" stroke="rgba(112,112,112,0.36)" stroke-width="6">
        <rect width="57" height="58" stroke="none"/>
        <rect x="3" y="3" width="51" height="52" fill="none"/>
      </g>
      <g id="Rectangle_2-8" data-name="Rectangle 2" transform="translate(664.727 320.371)" fill="#fff" stroke="rgba(112,112,112,0.36)" stroke-width="6">
        <rect width="57" height="58" stroke="none"/>
        <rect x="3" y="3" width="51" height="52" fill="none"/>
      </g>
      <g id="Cross" transform="translate(412.726 -129.629)">
        <line id="Line_1" data-name="Line 1" y1="25" x2="25" transform="translate(268.5 466.5)" fill="none" stroke="#dcdcdc" stroke-width="6"/>
        <line id="Line_2" data-name="Line 2" x2="25" y2="25" transform="translate(268.5 466.5)" fill="none" stroke="#dcdcdc" stroke-width="6"/>
      </g>
    </g>
    <text id="Exploring_Path_Finding_Algorithms" data-name="Exploring Path 
Finding Algorithms" transform="translate(159 209)" fill="#515151" font-size="78" font-family="Roboto-Bold, Roboto" font-weight="700"><tspan x="0" y="74">Exploring Path </tspan><tspan x="0" y="168">Finding Algorithms</tspan></text>
  </g>
</svg>
